<svg width="476" height="103" viewBox="0 0 476 103" fill="none" xmlns="http://www.w3.org/2000/svg">
<g clip-path="url(#clip0_507_8)">
<path d="M172.492 39.9922C172.492 37.3945 172.21 35.338 171.647 33.8227C171.084 32.3074 170.153 31.1601 168.854 30.3808C167.555 29.6016 165.844 29.1037 163.722 28.8872C161.622 28.6707 159.013 28.5625 155.895 28.5625H141.312C138.541 28.5625 136.203 28.6491 134.297 28.8223C132.413 28.9738 130.855 29.2985 129.62 29.7964C128.386 30.2943 127.433 31.0086 126.762 31.9394C126.091 32.8703 125.604 34.1041 125.301 35.6411C124.998 37.178 124.824 39.0722 124.781 41.3235C124.738 43.5531 124.716 46.2265 124.716 49.3437C124.716 52.4609 124.738 55.1451 124.781 57.3964C124.846 59.6261 125.03 61.5094 125.333 63.0463C125.636 64.5833 126.113 65.8171 126.762 66.748C127.433 67.6788 128.386 68.3932 129.62 68.891C130.855 69.3889 132.413 69.7244 134.297 69.8976C136.203 70.0492 138.541 70.1249 141.312 70.1249H155.895C158.32 70.1249 160.41 70.06 162.163 69.9301C163.917 69.8002 165.411 69.5621 166.645 69.2157C167.88 68.8694 168.876 68.3932 169.633 67.787C170.391 67.1809 170.976 66.4233 171.387 65.5141C171.82 64.5833 172.113 63.4793 172.264 62.2021C172.416 60.9033 172.492 59.388 172.492 57.6562H178.727C178.727 59.7343 178.597 61.6176 178.338 63.3061C178.078 64.9729 177.612 66.4666 176.941 67.787C176.291 69.0859 175.415 70.2115 174.31 71.164C173.206 72.1165 171.809 72.9066 170.121 73.5343C168.432 74.1405 166.418 74.5842 164.08 74.8656C161.741 75.1687 159.013 75.3202 155.895 75.3202H141.312C137.502 75.3202 134.286 75.0821 131.666 74.6059C129.068 74.1513 126.925 73.4586 125.236 72.5277C123.547 71.5753 122.237 70.3847 121.306 68.956C120.397 67.5273 119.725 65.8496 119.292 63.923C118.881 61.9964 118.643 59.8209 118.578 57.3964C118.513 54.972 118.48 52.2877 118.48 49.3437C118.48 46.3997 118.513 43.7155 118.578 41.291C118.643 38.8665 118.881 36.691 119.292 34.7644C119.725 32.8378 120.397 31.1601 121.306 29.7314C122.237 28.3027 123.547 27.123 125.236 26.1921C126.925 25.2397 129.068 24.5361 131.666 24.0815C134.286 23.6053 137.502 23.3672 141.312 23.3672H155.895C159.013 23.3672 161.741 23.5187 164.08 23.8218C166.418 24.1032 168.432 24.547 170.121 25.1531C171.809 25.7375 173.206 26.4844 174.31 27.3935C175.415 28.3027 176.291 29.3743 176.941 30.6081C177.612 31.842 178.078 33.2383 178.338 34.7969C178.597 36.3554 178.727 38.0872 178.727 39.9922H172.492Z" fill="white"/>
<path d="M219.293 49.0515C219.293 47.4929 219.173 46.2049 218.935 45.1875C218.719 44.1484 218.188 43.3258 217.344 42.7197C216.499 42.0919 215.244 41.659 213.576 41.4209C211.931 41.1611 209.679 41.0312 206.821 41.0312C204.028 41.0312 201.754 41.2802 200.001 41.778C198.247 42.2543 196.872 42.9362 195.876 43.8237C194.88 44.7112 194.198 45.7719 193.83 47.0058C193.483 48.2397 193.31 49.6143 193.31 51.1296V74.2812H187.074V36.875H193.31V42.8171C193.527 42.146 193.927 41.41 194.512 40.6091C195.096 39.7865 195.984 39.0289 197.175 38.3362C198.366 37.6218 199.903 37.0265 201.787 36.5503C203.692 36.074 206.063 35.8359 208.9 35.8359C212.147 35.8359 214.789 36.1282 216.824 36.7126C218.86 37.2754 220.44 38.1197 221.566 39.2453C222.714 40.3493 223.482 41.7239 223.872 43.3691C224.283 45.0143 224.489 46.9084 224.489 49.0515H219.293Z" fill="white"/>
<path d="M246.314 74.2812H248.393C248.047 74.9739 247.733 75.6341 247.451 76.2619C247.191 76.8896 246.867 77.4741 246.477 78.0153C246.087 78.5565 245.6 79.0435 245.015 79.4765C244.431 79.9094 243.651 80.2774 242.677 80.5805C241.724 80.9052 240.533 81.1433 239.104 81.2948C237.675 81.468 235.921 81.5546 233.843 81.5546V86.7499C236.268 86.7499 238.368 86.6308 240.144 86.3927C241.919 86.1762 243.446 85.8515 244.723 85.4186C246.022 85.0073 247.116 84.4986 248.003 83.8925C248.891 83.2864 249.66 82.5936 250.309 81.8144C250.959 81.0567 251.533 80.2125 252.031 79.2816C252.55 78.3725 253.07 77.3983 253.59 76.3593L254.629 74.2812L273.336 36.875H266.061L250.472 70.1249L233.843 36.875H226.568L246.314 74.2812Z" fill="white"/>
<path d="M302.437 35.8359C306.594 35.8359 310.123 36.1498 313.025 36.7776C315.926 37.4053 318.286 38.4769 320.105 39.9922C321.924 41.5075 323.244 43.5423 324.067 46.0966C324.89 48.6294 325.301 51.8115 325.301 55.643C325.301 59.4096 324.89 62.5376 324.067 65.027C323.244 67.5164 321.924 69.4972 320.105 70.9692C318.286 72.4412 315.926 73.4802 313.025 74.0863C310.123 74.6925 306.594 74.9955 302.437 74.9955C299.47 74.9955 296.991 74.8332 294.999 74.5085C293.007 74.1838 291.372 73.7833 290.095 73.307C288.839 72.8092 287.876 72.2788 287.204 71.716C286.555 71.1532 286.089 70.6228 285.808 70.1249V86.7499H279.572V36.875H285.808V40.3493C286.089 39.9164 286.555 39.4402 287.204 38.9206C287.876 38.3795 288.839 37.8816 290.095 37.427C291.372 36.9724 293.007 36.5936 294.999 36.2905C296.991 35.9874 299.47 35.8359 302.437 35.8359ZM302.437 41.0312C300.358 41.0312 298.507 41.0853 296.883 41.1936C295.259 41.3018 293.83 41.5291 292.596 41.8755C291.362 42.2002 290.312 42.6872 289.445 43.3366C288.601 43.9644 287.908 44.8195 287.367 45.9018C286.826 46.9625 286.425 48.283 286.165 49.8632C285.927 51.4435 285.808 53.3376 285.808 55.5456C285.808 57.7752 285.927 59.691 286.165 61.2929C286.425 62.8948 286.826 64.2369 287.367 65.3193C287.908 66.38 288.601 67.235 289.445 67.8844C290.312 68.5122 291.362 68.9993 292.596 69.3456C293.83 69.6703 295.259 69.8868 296.883 69.995C298.507 70.0816 300.358 70.1249 302.437 70.1249C304.862 70.1249 306.951 70.0492 308.705 69.8976C310.48 69.7461 311.985 69.4755 313.219 69.0859C314.454 68.6962 315.45 68.155 316.207 67.4623C316.987 66.7696 317.582 65.8929 317.994 64.8322C318.427 63.7498 318.708 62.4618 318.838 60.9682C318.99 59.4529 319.066 57.6778 319.066 55.643C319.066 53.6082 318.99 51.8331 318.838 50.3178C318.708 48.8025 318.427 47.5037 317.994 46.4213C317.582 45.339 316.987 44.4515 316.207 43.7588C315.45 43.066 314.454 42.514 313.219 42.1028C311.985 41.6915 310.48 41.41 308.705 41.2585C306.951 41.107 304.862 41.0312 302.437 41.0312Z" fill="white"/>
<path d="M368.952 57.6562C368.952 60.8383 368.692 63.5009 368.173 65.644C367.653 67.7654 366.776 69.4647 365.542 70.7419C364.329 72.019 362.727 72.9282 360.735 73.4694C358.743 74.0106 356.285 74.2812 353.362 74.2812C350.526 74.2812 348.144 74.0647 346.217 73.6317C344.29 73.1988 342.731 72.4628 341.54 71.4237C340.35 70.3847 339.494 68.9993 338.975 67.2675C338.455 65.5357 338.195 63.371 338.195 60.7734V42.0053H330.498V36.875H338.195V26.6467H344.431V36.875H367.913V42.0053H344.431V60.7734C344.431 62.8515 344.583 64.4534 344.886 65.579C345.21 66.7047 345.719 67.5273 346.412 68.0468C347.105 68.5663 348.014 68.8694 349.14 68.956C350.288 69.0426 351.684 69.0859 353.33 69.0859C354.629 69.0859 355.787 69.0642 356.805 69.0209C357.844 68.9776 358.743 68.8477 359.501 68.6313C360.28 68.3932 360.941 68.0468 361.482 67.5922C362.023 67.116 362.456 66.4557 362.781 65.6115C363.128 64.7673 363.377 63.7066 363.528 62.4294C363.68 61.1306 363.755 59.5395 363.755 57.6562H368.952Z" fill="white"/>
<path d="M374.148 55.3183C374.148 51.4868 374.56 48.3155 375.383 45.8044C376.205 43.2933 377.526 41.3018 379.345 39.8298C381.164 38.3578 383.524 37.3296 386.425 36.7451C389.327 36.139 392.856 35.8359 397.013 35.8359C401.17 35.8359 404.7 36.139 407.601 36.7451C410.502 37.3296 412.862 38.3578 414.681 39.8298C416.5 41.3018 417.821 43.2933 418.644 45.8044C419.466 48.3155 419.878 51.4868 419.878 55.3183C419.878 59.1498 419.466 62.332 418.644 64.8647C417.821 67.3974 416.5 69.4106 414.681 70.9042C412.862 72.3979 410.502 73.4586 407.601 74.0863C404.7 74.6925 401.17 74.9955 397.013 74.9955C392.856 74.9955 389.327 74.6925 386.425 74.0863C383.524 73.4586 381.164 72.3979 379.345 70.9042C377.526 69.4106 376.205 67.3974 375.383 64.8647C374.56 62.332 374.148 59.1498 374.148 55.3183ZM380.384 55.3183C380.384 57.3964 380.46 59.204 380.612 60.7409C380.763 62.2778 381.045 63.5983 381.456 64.7023C381.889 65.8063 382.485 66.7047 383.242 67.3974C384 68.0901 384.996 68.6421 386.23 69.0534C387.465 69.4647 388.959 69.7461 390.712 69.8976C392.488 70.0492 394.588 70.1249 397.013 70.1249C399.092 70.1249 400.943 70.0816 402.567 69.995C404.212 69.8868 405.641 69.6595 406.854 69.3132C408.088 68.9668 409.138 68.4797 410.004 67.852C410.87 67.2026 411.563 66.3259 412.083 65.2219C412.624 64.1178 413.014 62.7649 413.252 61.163C413.512 59.5395 413.642 57.5912 413.642 55.3183C413.642 53.0887 413.512 51.1945 413.252 49.6359C413.014 48.0557 412.624 46.7352 412.083 45.6745C411.563 44.6138 410.87 43.7804 410.004 43.1743C409.138 42.5465 408.088 42.0811 406.854 41.778C405.641 41.4533 404.212 41.2477 402.567 41.1611C400.943 41.0745 399.092 41.0312 397.013 41.0312C394.935 41.0312 393.072 41.0745 391.427 41.1611C389.803 41.2477 388.374 41.4533 387.14 41.778C385.927 42.0811 384.888 42.5465 384.022 43.1743C383.156 43.7804 382.452 44.6138 381.911 45.6745C381.391 46.7352 381.001 48.0557 380.742 49.6359C380.503 51.1945 380.384 53.0887 380.384 55.3183Z" fill="white"/>
<path d="M429.231 36.875V41.4533H458.852L427.153 69.0859V74.2812H466.646V69.6379H435.402L466.646 42.0703V36.875H429.231Z" fill="white"/>
<path d="M21.3306 17.4562L48.8846 14.5469L76.4364 17.4562L97.7671 46.0865L48.8846 103L0 46.0865L21.3306 17.4562Z" fill="#04DA9A"/>
<path d="M19.8008 46.0886L48.8846 103L0 46.0886H19.8008Z" fill="#04DA9A"/>
<path d="M77.9663 46.0886L48.8825 103L97.7671 46.0886H77.9663Z" fill="#04DA9A"/>
<path d="M19.8008 46.0886H77.9684L48.8846 103L19.8008 46.0886Z" fill="#00CB8E"/>
<path d="M48.8846 14.5469L21.3306 17.4562L19.8008 46.0844L48.8846 14.5469Z" fill="#04DA9A"/>
<path d="M48.8825 14.5468L76.4365 17.4582L77.9663 46.0864L48.8825 14.5468Z" fill="#04DA9A"/>
<path d="M97.7671 46.0864L76.4365 17.4582L77.9663 46.0864H97.7671Z" fill="#04DA9A"/>
<path d="M0 46.0864L21.3306 17.4583L19.8008 46.0864H0Z" fill="#04DA9A"/>
<path fill-rule="evenodd" clip-rule="evenodd" d="M57.6771 56.1345C56.6758 57.1716 55.4331 57.9445 54.0602 58.3844C52.6872 58.8243 51.2267 58.9173 49.809 58.6553C48.3912 58.3933 47.0605 57.7842 45.9356 56.8826C44.8107 55.9811 43.9266 54.8151 43.3624 53.4887C42.7981 52.1623 42.5711 50.7169 42.7018 49.2814C42.8325 47.846 43.3168 46.4652 44.1114 45.2624C44.906 44.0597 45.9861 43.0724 47.2554 42.3888C48.5246 41.7051 49.9434 41.3462 51.3852 41.3444V41.3444C53.2819 41.3403 55.1276 41.958 56.6398 43.1026L62.8507 36.8931C60.2762 34.6556 57.1029 33.2205 53.7223 32.7645C50.3416 32.3086 46.9014 32.8517 43.8259 34.3272C40.7504 35.8027 38.1741 38.146 36.4147 41.0679C34.6553 43.9898 33.7898 47.3627 33.925 50.7705C34.0601 54.1784 35.19 57.4721 37.1752 60.2456C39.1604 63.0191 41.9142 65.1511 45.0969 66.3785C48.2796 67.606 51.7521 67.8751 55.086 67.153C58.42 66.4309 61.4696 64.7491 63.8589 62.3149L57.6771 56.1345Z" fill="#212530"/>
</g>
<defs>
<clipPath id="clip0_507_8">
<rect width="476" height="103" fill="white"/>
</clipPath>
</defs>
</svg>
